<mxfile host="app.diagrams.net" modified="2021-04-28T20:23:01.094Z" agent="5.0 (Windows NT 10.0; Win64; x64) AppleWebKit/537.36 (KHTML, like Gecko) Chrome/89.0.4389.105 YaBrowser/21.3.2.193 Yowser/2.5 Safari/537.36" etag="-ynqSJouLOhwPNDpdTIG" version="14.6.6" type="github">
  <diagram id="BbZp0wIPJg2pPCtm-65s" name="Page-1">
    <mxGraphModel dx="591" dy="1113" grid="1" gridSize="10" guides="1" tooltips="1" connect="1" arrows="1" fold="1" page="1" pageScale="1" pageWidth="827" pageHeight="1169" math="0" shadow="0">
      <root>
        <mxCell id="0" />
        <mxCell id="1" parent="0" />
        <mxCell id="A1ffpmilmXvQ61Awp4m_-7" value="" style="edgeStyle=orthogonalEdgeStyle;rounded=0;orthogonalLoop=1;jettySize=auto;html=1;" edge="1" parent="1" source="A1ffpmilmXvQ61Awp4m_-1" target="A1ffpmilmXvQ61Awp4m_-2">
          <mxGeometry relative="1" as="geometry" />
        </mxCell>
        <mxCell id="A1ffpmilmXvQ61Awp4m_-1" value="НАЧАЛО" style="ellipse;whiteSpace=wrap;html=1;" vertex="1" parent="1">
          <mxGeometry x="130" y="70" width="120" height="60" as="geometry" />
        </mxCell>
        <mxCell id="A1ffpmilmXvQ61Awp4m_-8" value="" style="edgeStyle=orthogonalEdgeStyle;rounded=0;orthogonalLoop=1;jettySize=auto;html=1;" edge="1" parent="1" source="A1ffpmilmXvQ61Awp4m_-2" target="A1ffpmilmXvQ61Awp4m_-3">
          <mxGeometry relative="1" as="geometry" />
        </mxCell>
        <mxCell id="A1ffpmilmXvQ61Awp4m_-2" value="Ввод inp, n" style="shape=parallelogram;perimeter=parallelogramPerimeter;whiteSpace=wrap;html=1;fixedSize=1;" vertex="1" parent="1">
          <mxGeometry x="130" y="160" width="120" height="60" as="geometry" />
        </mxCell>
        <mxCell id="A1ffpmilmXvQ61Awp4m_-9" value="" style="edgeStyle=orthogonalEdgeStyle;rounded=0;orthogonalLoop=1;jettySize=auto;html=1;" edge="1" parent="1" source="A1ffpmilmXvQ61Awp4m_-3" target="A1ffpmilmXvQ61Awp4m_-4">
          <mxGeometry relative="1" as="geometry" />
        </mxCell>
        <mxCell id="A1ffpmilmXvQ61Awp4m_-3" value="Ввод count = 0" style="shape=parallelogram;perimeter=parallelogramPerimeter;whiteSpace=wrap;html=1;fixedSize=1;" vertex="1" parent="1">
          <mxGeometry x="130" y="250" width="120" height="60" as="geometry" />
        </mxCell>
        <mxCell id="A1ffpmilmXvQ61Awp4m_-10" value="" style="edgeStyle=orthogonalEdgeStyle;rounded=0;orthogonalLoop=1;jettySize=auto;html=1;" edge="1" parent="1" source="A1ffpmilmXvQ61Awp4m_-4" target="A1ffpmilmXvQ61Awp4m_-5">
          <mxGeometry relative="1" as="geometry" />
        </mxCell>
        <mxCell id="A1ffpmilmXvQ61Awp4m_-18" style="edgeStyle=orthogonalEdgeStyle;rounded=0;orthogonalLoop=1;jettySize=auto;html=1;exitX=1;exitY=0.5;exitDx=0;exitDy=0;entryX=0.5;entryY=0;entryDx=0;entryDy=0;" edge="1" parent="1" source="A1ffpmilmXvQ61Awp4m_-4" target="A1ffpmilmXvQ61Awp4m_-15">
          <mxGeometry relative="1" as="geometry" />
        </mxCell>
        <mxCell id="A1ffpmilmXvQ61Awp4m_-4" value="i in inp" style="shape=hexagon;perimeter=hexagonPerimeter2;whiteSpace=wrap;html=1;fixedSize=1;" vertex="1" parent="1">
          <mxGeometry x="130" y="340" width="120" height="80" as="geometry" />
        </mxCell>
        <mxCell id="A1ffpmilmXvQ61Awp4m_-11" value="" style="edgeStyle=orthogonalEdgeStyle;rounded=0;orthogonalLoop=1;jettySize=auto;html=1;" edge="1" parent="1" source="A1ffpmilmXvQ61Awp4m_-5" target="A1ffpmilmXvQ61Awp4m_-6">
          <mxGeometry relative="1" as="geometry" />
        </mxCell>
        <mxCell id="A1ffpmilmXvQ61Awp4m_-13" style="edgeStyle=orthogonalEdgeStyle;rounded=0;orthogonalLoop=1;jettySize=auto;html=1;exitX=0;exitY=0.5;exitDx=0;exitDy=0;entryX=0;entryY=0.5;entryDx=0;entryDy=0;" edge="1" parent="1" source="A1ffpmilmXvQ61Awp4m_-5" target="A1ffpmilmXvQ61Awp4m_-4">
          <mxGeometry relative="1" as="geometry">
            <Array as="points">
              <mxPoint x="90" y="490" />
              <mxPoint x="90" y="380" />
            </Array>
          </mxGeometry>
        </mxCell>
        <mxCell id="A1ffpmilmXvQ61Awp4m_-5" value="i == n?" style="rhombus;whiteSpace=wrap;html=1;" vertex="1" parent="1">
          <mxGeometry x="145" y="450" width="90" height="80" as="geometry" />
        </mxCell>
        <mxCell id="A1ffpmilmXvQ61Awp4m_-14" style="edgeStyle=orthogonalEdgeStyle;rounded=0;orthogonalLoop=1;jettySize=auto;html=1;exitX=0;exitY=0.5;exitDx=0;exitDy=0;" edge="1" parent="1" source="A1ffpmilmXvQ61Awp4m_-6">
          <mxGeometry relative="1" as="geometry">
            <mxPoint x="130" y="380" as="targetPoint" />
            <Array as="points">
              <mxPoint x="90" y="590" />
              <mxPoint x="90" y="380" />
            </Array>
          </mxGeometry>
        </mxCell>
        <mxCell id="A1ffpmilmXvQ61Awp4m_-6" value="count += 1" style="whiteSpace=wrap;html=1;" vertex="1" parent="1">
          <mxGeometry x="130" y="560" width="120" height="60" as="geometry" />
        </mxCell>
        <mxCell id="A1ffpmilmXvQ61Awp4m_-12" value="ДА" style="text;html=1;align=center;verticalAlign=middle;resizable=0;points=[];autosize=1;strokeColor=none;" vertex="1" parent="1">
          <mxGeometry x="185" y="540" width="30" height="20" as="geometry" />
        </mxCell>
        <mxCell id="A1ffpmilmXvQ61Awp4m_-17" value="" style="edgeStyle=orthogonalEdgeStyle;rounded=0;orthogonalLoop=1;jettySize=auto;html=1;" edge="1" parent="1" source="A1ffpmilmXvQ61Awp4m_-15" target="A1ffpmilmXvQ61Awp4m_-16">
          <mxGeometry relative="1" as="geometry" />
        </mxCell>
        <mxCell id="A1ffpmilmXvQ61Awp4m_-15" value="Вывод current" style="shape=parallelogram;perimeter=parallelogramPerimeter;whiteSpace=wrap;html=1;fixedSize=1;" vertex="1" parent="1">
          <mxGeometry x="300" y="420" width="120" height="60" as="geometry" />
        </mxCell>
        <mxCell id="A1ffpmilmXvQ61Awp4m_-16" value="КОНЕЦ" style="ellipse;whiteSpace=wrap;html=1;" vertex="1" parent="1">
          <mxGeometry x="300" y="510" width="120" height="60" as="geometry" />
        </mxCell>
      </root>
    </mxGraphModel>
  </diagram>
</mxfile>
